<svg width="11" height="16" fill="none" xmlns="http://www.w3.org/2000/svg"><path d="M8.866.666H1.741C.9.666.214 1.306.214 2.094v12.38c0 .788.685 1.43 1.527 1.43h7.125c.842 0 1.527-.642 1.527-1.43V2.095c0-.787-.685-1.428-1.527-1.428zm-7.125.952h7.125c.281 0 .51.214.51.476v10H1.231v-10c0-.262.228-.476.51-.476zm7.125 13.333H1.741c-.28 0-.509-.213-.509-.476v-1.429h8.143v1.429c0 .263-.228.476-.509.476z" fill="#757575"/><path d="M2.61 13.662a.455.455 0 010 .674.534.534 0 01-.72 0 .455.455 0 010-.674.534.534 0 01.72 0z" fill="#757575"/></svg>